<svg height="512" viewBox="0 0 60 62" width="512" xmlns="http://www.w3.org/2000/svg"><g id="020---Football" transform="translate(-1)"><path id="Shape" d="m8.21 59.29c13.79 4.71 29.43-.39 40.06-11.02 11.17-11.17 15.49-26.89 11-40.06-.8849414-2.58472902-2.915271-4.61505857-5.5-5.5-18.86-6.42-42.48 5.53-50.37 27.1-2.96632307 7.6864886-3.20634599 16.1578857-.68 24 .88804369 2.5748953 2.91348994 4.5966522 5.49 5.48zm-4-25.44c3.72088859 11.3529172 12.6378045 20.2475408 24 23.94-2.1542548.5766723-4.3567792.9549174-6.58 1.13-8.776984-2.8424591-15.65754088-9.723016-18.5-18.5.15952863-2.2182776.5210257-4.4173847 1.08-6.57zm.39 19.3c-.82096474-2.4464818-1.33162231-4.9863314-1.52-7.56 2.92703511 5.737435 7.592565 10.4029649 13.33 13.33-2.5736686-.1883777-5.1135182-.6990353-7.56-1.52-1.99409406-.6889359-3.56106406-2.2559059-4.25-4.25zm35.82-50.07c8.776984 2.84245912 15.6575409 9.723016 18.5 18.5-.1750826 2.2232208-.5533277 4.4257452-1.13 6.58-3.7103443-11.3723655-12.6276345-20.28965566-24-24 2.1722446-.56236341 4.3915793-.92388399 6.63-1.08zm17 5.77c.8209647 2.4464818 1.3316223 4.9863314 1.52 7.56-2.9335155-5.7488818-7.614543-10.41940586-13.37-13.34 2.5812736.18687312 5.1283396.70099067 7.58 1.53 1.9940941.68893594 3.5610641 2.25590594 4.25 4.25zm-27.13-3.52c12.71 2.58 23.78 13.67 26.37 26.36-4.3635467 11.5322627-13.4677373 20.6364533-25 25-12.66-2.62-23.73-13.69-26.32-26.38 4.37044258-11.5058681 13.4493921-20.59573418 24.95-24.98z"/><path id="Shape" d="m30.83 25.92c-.3967603-.3397768-.9881942-.3169323-1.3575632.0524368-.3693691.369369-.3922136.9608029-.0524368 1.3575632l1.92 1.92-2.09 2.09-1.92-1.92c-.3967603-.3397768-.9881942-.3169323-1.3575632.0524368-.3693691.369369-.3922136.9608029-.0524368 1.3575632l1.92 1.92-2.09 2.09-1.92-1.92c-.3967603-.3397768-.9881942-.3169323-1.3575632.0524368-.3693691.369369-.3922136.9608029-.0524368 1.3575632l1.92 1.92-2.09 2.09-1.92-1.92c-.3967603-.3397768-.9881942-.3169323-1.3575632.0524368-.3693691.369369-.3922136.9608029-.0524368 1.3575632l1.92 1.92-2.09 2.09-1.92-1.92c-.3967603-.3397768-.9881942-.3169323-1.3575632.0524368-.3693691.369369-.3922136.9608029-.0524368 1.3575632l1.92 1.92-1.05 1c-.3195852.2807747-.426553.733004-.2666217 1.1272008s.5517487.6440618.9766217.6227992c.54 0 .7-.29 1.75-1.34 2 2 2.07 2.22 2.63 2.22.4044441-.0016958.7680455-.2468472.9212679-.6211476s.0658935-.8040433-.2212679-1.0888524l-1.92-1.92 2.09-2.09c2 2 2.07 2.22 2.63 2.22.4044441-.0016958.7680455-.2468472.9212679-.6211476s.0658935-.8040433-.2212679-1.0888524l-1.92-1.92 2.09-2.09c2 2 2.07 2.22 2.63 2.22.4044441-.0016958.7680455-.2468472.9212679-.6211476s.0658935-.8040433-.2212679-1.0888524l-1.92-1.92 2.09-2.09c2 2 2.07 2.22 2.63 2.22.4044441-.0016958.7680455-.2468472.9212679-.6211476s.0658935-.8040433-.2212679-1.0888524l-1.92-1.92 2.09-2.09c2 2 2.07 2.22 2.63 2.22.4044441-.0016958.7680455-.2468472.9212679-.6211476s.0658935-.8040433-.2212679-1.0888524l-1.92-1.92 2.09-2.09c2 2 2.07 2.22 2.63 2.22.4044441-.0016958.7680455-.2468472.9212679-.6211476s.0658935-.8040433-.2212679-1.0888524l-1.92-1.92 2.09-2.09c2 2 2.07 2.22 2.63 2.22.4044441-.0016958.7680455-.2468472.9212679-.6211476s.0658935-.8040433-.2212679-1.0888524l-1.92-1.92 2.09-2.09c2 2 2.07 2.22 2.63 2.22.4044441-.0016958.7680455-.2468472.9212679-.6211476s.0658935-.8040433-.2212679-1.0888524l-1.92-1.92 1.05-1c.3921221-.3921222.3921221-1.0278778 0-1.42-.3921222-.3921221-1.0278778-.3921221-1.42 0l-1 1.05-1.92-1.92c-.3967603-.3397768-.9881942-.3169323-1.3575632.0524368-.3693691.369369-.3922136.9608029-.0524368 1.3575632l1.92 1.92-2.09 2.09-1.92-1.92c-.3967603-.3397768-.9881942-.3169323-1.3575632.0524368-.3693691.369369-.3922136.9608029-.0524368 1.3575632l1.92 1.92-2.09 2.09-1.92-1.92c-.3967603-.3397768-.9881942-.3169323-1.3575632.0524368-.3693691.369369-.3922136.9608029-.0524368 1.3575632l1.92 1.92-2.09 2.09z"/><path id="Shape" d="m8.9 29c.47537316.2730821 1.08198877.1125074 1.36-.36 7.61-13.16 16.66-16.82 16.74-16.87.5163862-.1988225.7738225-.7786138.575-1.295-.1988225-.51638624-.7786138-.77382251-1.295-.575-.4.16-9.78 3.89-17.79 17.72-.13366192.2363241-.16548659.5168384-.08816277.7770991.07732381.2602606.25714877.4778936.49816277.6029009z"/><circle id="Oval" cx="29.56" cy="9.4" r="1.02"/></g></svg>