<?xml version="1.0" encoding="iso-8859-1"?>
<!-- Generator: Adobe Illustrator 19.0.0, SVG Export Plug-In . SVG Version: 6.00 Build 0)  -->
<svg version="1.1" id="Capa_1" xmlns="http://www.w3.org/2000/svg" xmlns:xlink="http://www.w3.org/1999/xlink" x="0px" y="0px"
	 viewBox="0 0 512 512" style="enable-background:new 0 0 512 512;" xml:space="preserve">
<g>
	<g>
		<path d="M477.867,60.596L477.867,60.596v-0.863c-0.015-14.132-11.468-25.585-25.6-25.6H59.733
			c-14.132,0.015-25.585,11.468-25.6,25.6v256.862C14.268,320.651,0,338.125,0,358.4s14.268,37.75,34.133,41.804v52.063
			c0.015,14.132,11.468,25.585,25.6,25.6h392.533c14.132-0.015,25.585-11.468,25.6-25.6V144.204
			C497.732,140.15,512,122.675,512,102.4S497.732,64.651,477.867,60.596z M51.2,59.733c0.005-4.711,3.822-8.529,8.533-8.533h392.533
			c4.711,0.005,8.529,3.822,8.533,8.533v0.862c-19.85,4.08-34.106,21.539-34.133,41.804c0.023,5.324,1.051,10.596,3.031,15.539
			l-96.105,156.226c-6.83-1.656-13.98-1.436-20.695,0.636l-83.216-68.575c-3.63-21.742-23.258-37.117-45.237-35.434
			c-21.979,1.683-39.037,19.867-39.314,41.909L51.2,312.146V59.733z M349.238,281.299l90.976-147.889
			c4.194,3.926,9.14,6.961,14.54,8.924l-93.665,152.234C358.113,289.363,354.075,284.843,349.238,281.299z M349.867,315.733
			c0,14.138-11.462,25.6-25.6,25.6c-14.138,0-25.6-11.461-25.6-25.6c0.015-14.132,11.468-25.585,25.6-25.6
			C338.405,290.133,349.867,301.595,349.867,315.733z M296.621,283.506c-4.349,3.724-7.905,8.285-10.454,13.412h0l-66.864-55.144
			c3.871-4.304,6.821-9.355,8.669-14.841L296.621,283.506z M213.333,213.333c0,14.138-11.462,25.6-25.6,25.6
			c-14.132-0.015-25.585-11.468-25.6-25.6c0-14.138,11.461-25.6,25.6-25.6S213.333,199.195,213.333,213.333z M160.545,245.938
			l-83.06,87.956c-3.31-4.662-7.519-8.614-12.38-11.624l84.745-89.722C152.473,237.689,156.111,242.244,160.545,245.938z
			 M17.067,358.4c0-14.138,11.462-25.6,25.6-25.6s25.6,11.462,25.6,25.6c0,14.138-11.461,25.6-25.6,25.6
			C28.535,383.985,17.082,372.532,17.067,358.4z M460.8,452.267c-0.005,4.711-3.823,8.529-8.533,8.533H59.733
			c-4.711-0.005-8.529-3.822-8.533-8.533v-52.062c10.927-2.065,20.585-8.387,26.85-17.574c6.265-9.187,8.624-20.487,6.557-31.413
			l91.6-97c9.554,2.942,19.861,2.226,28.916-2.01l76.519,63.107c-0.002,0.143-0.042,0.275-0.042,0.418
			c-0.046,23.107,18.345,42.033,41.443,42.65c23.098,0.617,42.473-17.301,43.661-40.377L460.8,165.07V452.267z M469.333,128
			c-14.138,0-25.6-11.462-25.6-25.6s11.462-25.6,25.6-25.6s25.6,11.461,25.6,25.6C494.918,116.532,483.466,127.985,469.333,128z"/>
	</g>
</g>
<g>
</g>
<g>
</g>
<g>
</g>
<g>
</g>
<g>
</g>
<g>
</g>
<g>
</g>
<g>
</g>
<g>
</g>
<g>
</g>
<g>
</g>
<g>
</g>
<g>
</g>
<g>
</g>
<g>
</g>
</svg>
