<svg height="512pt" viewBox="0 0 512 512.02904" width="512pt" xmlns="http://www.w3.org/2000/svg"><path d="m503.480469 494.960938h-30.546875l10.851562-31.339844c4.273438 1.492187 8.964844 1.210937 13.03125-.777344 4.082032-1.964844 7.207032-5.484375 8.671875-9.773438l5.585938-16.125c3.082031-8.910156-1.636719-18.628906-10.546875-21.710937l-16.125-5.605469c-8.910156-3.082031-18.628906 1.640625-21.710938 10.546875l-5.582031 16.128907c-1.488281 4.277343-1.214844 8.972656.761719 13.050781 1.976562 4.074219 5.488281 7.199219 9.769531 8.683593l-12.800781 36.921876h-41.8125c1.671875-2.972657 2.722656-6.25 3.089844-9.640626.917968-14.484374.746093-29.011718-.519532-43.46875 4.773438-4.679687 7.191406-11.261718 6.585938-17.921874-1.511719-12.601563-3.753906-26.332032-6.929688-42.664063 4.125-5.007813 5.726563-11.628906 4.335938-17.964844-2.558594-11.519531-5.359375-23.039062-8.113282-34.550781l-1.863281-7.867188c3.238281-5.21875 4.1875-11.539062 2.628907-17.476562-4.265626-16.527344-7.535157-30.183594-10.324219-42.753906 2.519531-5.417969 3.097656-11.542969 1.628906-17.339844-2.429687-7.992188-4.566406-15.648438-6.492187-23.132812l41.597656 46.082031c4.039062 4.386719 9.746094 6.867187 15.710937 6.824219.488281 0 .980469 0 1.476563-.050782 6.296875-.363281 12.078125-3.59375 15.691406-8.761718 16.324219-23.742188 10.558594-56.03125-15.035156-84.277344h34.628906c6.597656-.027344 12.804688-3.148438 16.757812-8.429688 3.917969-5.171875 5.140626-11.898437 3.296876-18.117187-7.792969-26.667969-34.417969-43.785157-70.207032-45.636719l25.285156-30.984375c4.101563-4.894531 5.550782-11.488281 3.875-17.65625-1.734374-6.300781-6.394531-11.382813-12.527343-13.652344-19.433594-6.761719-40.933594-3.765625-57.777344 8.046875-1.789063-18.976562-10.84375-36.523437-25.269531-48.980468-7.539063-6.113282-18.332032-6.113282-25.871094 0-14.113281 12.175781-23.078125 29.253906-25.082031 47.785156-16.519531-10.84375-37.15625-13.371094-55.804688-6.824219-6.121093 2.242187-10.785156 7.296875-12.527343 13.574219-1.703126 6.1875-.277344 12.816406 3.820312 17.75l25.371094 31.027344c-8.148438.34375-16.226563 1.621093-24.082032 3.816406l-2.832031-7.09375c-2.570312-6.496094-8.859375-10.753906-15.847656-10.726563h-193.246094c-6.984375-.027343-13.273437 4.230469-15.84375 10.726563l-27.308593 68.269531c-2.109376 5.257813-1.46875 11.21875 1.707031 15.914063.519531.675781 1.089843 1.3125 1.707031 1.902343-.082031.4375-.140625.878907-.171875 1.320313v21.335937c.058594 15.515625 10.578125 29.042969 25.601563 32.921875v214.542969h-8.535157c-14.136719 0-25.597656 11.460937-25.597656 25.601563 0 14.136718 11.460937 25.597656 25.597656 25.597656h477.867188c4.714843 0 8.535156-3.820313 8.535156-8.53125 0-4.714844-3.820313-8.535156-8.535156-8.535156zm-24.660157-69.179688 16.128907 5.582031-5.574219 16.128907-16.128906-5.582032zm-205.738281 35.046875h-17.066406v-192.117187c3.257813 2.527343 7.191406 4.03125 11.304687 4.324218.496094.035156.992188.050782 1.484376.050782 5.984374.027343 11.699218-2.480469 15.726562-6.902344l44.75-49.492188c-2.167969 8.644532-4.640625 17.570313-7.585938 27.230469-1.335937 5.621094-.703124 11.535156 1.792969 16.75-2.800781 12.613281-6.09375 26.273437-10.34375 42.800781-1.546875 5.929688-.589843 12.234375 2.644531 17.433594l-1.960937 8.183594c-2.738281 11.4375-5.488281 22.878906-8.082031 34.375-1.375 6.324218.230468 12.929687 4.351562 17.917968-3.171875 16.332032-5.425781 30.074219-6.9375 42.667969-.578125 6.621094 1.84375 13.15625 6.597656 17.800781-1.269531 14.53125-1.4375 29.132813-.503906 43.691407.378906 3.316406 1.425782 6.519531 3.082032 9.417969h-15.226563c1.011719-2.730469 1.542969-5.617188 1.570313-8.53125 0-14.140626-11.460938-25.601563-25.597657-25.601563zm-42.667969 0h-8.53125v-85.332031h17.066407v85.332031zm-42.667968 0v-85.332031h17.070312v85.332031zm-34.132813 0v-85.332031h17.066407v85.332031zm-68.265625 0v-85.332031h17.066406v85.332031zm-17.066406-225.125c6.398438 7.484375 15.753906 11.792969 25.601562 11.792969 9.84375 0 19.199219-4.308594 25.597657-11.792969 6.398437 7.484375 15.753906 11.792969 25.601562 11.792969 9.847657 0 19.199219-4.308594 25.597657-11.792969 6.402343 7.484375 15.753906 11.792969 25.601562 11.792969s19.199219-4.308594 25.601562-11.792969c4.488282 5.167969 10.4375 8.855469 17.066407 10.582031v112.144532h-17.066407v-25.601563c0-9.425781-7.644531-17.066406-17.066406-17.066406h-17.070312c-9.425782 0-17.066406 7.640625-17.066406 17.066406v25.601563h-42.664063v-30.601563l23.097656-23.097656c3.234375-3.351563 3.1875-8.671875-.101562-11.964844-3.292969-3.289063-8.617188-3.335937-11.964844-.101563l-19.566406 19.566407-19.566407-19.566407c-3.347656-3.234374-8.671874-3.1875-11.960937.101563-3.292969 3.292969-3.339844 8.613281-.105469 11.964844l23.101563 23.097656v30.601563h-59.734375v-112.144532c6.625-1.726562 12.574218-5.414062 17.066406-10.582031zm8.535156-39.40625h34.132813v17.066406c0 9.425781-7.640625 17.066407-17.066407 17.066407-9.425781 0-17.066406-7.640626-17.066406-17.066407zm248.316406-30.542969c1.507813 7.125 5.011719 13.671875 10.105469 18.875l-63.324219 70.085938c-.894531.910156-2.144531 1.382812-3.414062 1.289062-1.074219-.035156-2.082031-.539062-2.75-1.382812-.875-1.285156-1.675781-2.621094-2.386719-4.003906-1.40625-2.613282-4.089843-4.292969-7.058593-4.410157 14.882812-3.980469 25.25-17.4375 25.308593-32.84375v-21.335937c-.019531-.441406-.0625-.882813-.136719-1.320313.617188-.589843 1.1875-1.226562 1.707032-1.902343.507812-.816407.945312-1.671876 1.316406-2.5625 2.910156-2.855469 6.023438-5.5 9.316406-7.910157 9.039063-7.070312 19.898438-11.429687 31.316406-12.578125zm69.777344 167.074219c2.75 11.445313 5.488282 22.886719 8.066406 34.28125.144532.664063.585938 2.675781-2.246093 5.023437-3.277344 2.339844-7.234375 3.539063-11.261719 3.414063h-53.539062c-3.996094.132813-7.921876-1.035156-11.195313-3.328125-2.902344-2.40625-2.457031-4.429688-2.320313-5.035156 2.558594-11.367188 5.289063-22.730469 8.011719-34.132813l.347657-1.46875c2.753906.804688 5.601562 1.230469 8.464843 1.265625h46.933594c2.867187-.035156 5.714844-.460937 8.464844-1.265625zm-7.832031-60.371094c2.433594 10.527344 5.230469 21.964844 8.617187 35.164063.597657 1.894531.085938 3.960937-1.320312 5.359375-2.285156 1.941406-5.222656 2.945312-8.21875 2.808593h-46.933594c-2.964844.136719-5.871094-.839843-8.148437-2.742187-1.441407-1.382813-1.980469-3.460937-1.398438-5.375 3.410157-13.21875 6.195313-24.652344 8.625-35.214844 1.808594.433594 3.660157.65625 5.523438.664063h37.714843c1.867188-.015625 3.726563-.246094 5.539063-.691406zm-.851563-18.449219c-1.148437 1.367188-2.867187 2.125-4.652343 2.046876h-37.71875c-1.722657.097656-3.398438-.605469-4.539063-1.902344-1.179687-1.699219-1.589844-3.820313-1.125-5.835938 4.496094-14.671875 8.097656-28.289062 11.03125-41.710937l1.28125-6.058594c0-.171875.070313-.359375.09375-.554687l1.101563-5.472657c7.179687 2.425781 14.957031 2.425781 22.136719 0 .585937 3.148438 1.183593 6.332031 1.859374 9.386719 2.996094 14.199219 6.765626 28.722656 11.382813 43.835938.613281 2.109374.296875 4.378906-.871094 6.238281zm-2.210937-96.683593v.109375c0 .035156 0 .121094.050781.1875.050782.070312 0 .179687 0 .273437 1 12.941407-8.636718 24.261719-21.570312 25.34375-12.9375 1.078125-24.316406-8.488281-25.472656-21.417969-1.15625-12.929687 8.339843-24.363281 21.261718-25.601562 12.921875-1.234375 24.414063 8.191406 25.730469 21.105469zm-119.46875 56.039062c0 9.425781-7.640625 17.066407-17.066406 17.066407s-17.066407-7.640626-17.066407-17.066407v-17.066406h34.132813zm-51.199219 0c0 9.425781-7.640625 17.066407-17.066406 17.066407s-17.066406-7.640626-17.066406-17.066407v-17.066406h34.132812zm-51.199218 0c0 9.425781-7.640626 17.066407-17.066407 17.066407s-17.066406-7.640626-17.066406-17.066407v-17.066406h34.132813zm42.667968 145.066407h-17.070312v-25.601563h17.070312zm-85.335937 17.066406h17.066406v85.332031h-17.066406zm204.195312 56.140625c-1.160156-.855469-3.832031-3.167969-3.558593-5.640625 1.253906-10.453125 3.046874-21.785156 5.488281-34.882813 3.359375.941407 6.832031 1.429688 10.324219 1.449219h53.539062c3.488281-.019531 6.960938-.507812 10.324219-1.449219 2.441406 13.0625 4.265625 24.378907 5.476562 34.8125.28125 2.5625-2.386719 4.847657-3.472656 5.652344-3.609375 2.453125-7.890625 3.726563-12.253906 3.652344h-53.691407c-4.332031.078125-8.582031-1.175781-12.175781-3.59375zm133.8125-177.058594c-.667969.863281-1.683593 1.386719-2.773437 1.425781-1.269532.097656-2.515625-.359375-3.414063-1.253906l-62.292969-68.992188c5.648438-5.289062 9.558594-12.164062 11.21875-19.722656 10.65625 1.492188 20.734376 5.746094 29.238282 12.339844 5.226562 3.847656 10.046875 8.226562 14.375 13.066406 20.320312 22.414063 25.414062 46.027344 13.648437 63.136719zm37.316407-96.308594c.300781 1.066407.078124 2.207031-.597657 3.082031-.726562.980469-1.863281 1.5625-3.082031 1.578126h-54.203125c-10.886719-7.910157-23.679687-12.789063-37.070313-14.140626-1.257812-5.109374-3.566406-9.898437-6.773437-14.070312 9.386719-5.355469 19.84375-8.558594 30.617187-9.386719 3.558594-.4375 7.144532-.640625 10.734376-.605469 31.675781-.027343 54.230468 12.511719 60.375 33.542969zm-43.179688-96.757812c.980469.3125 1.742188 1.097656 2.023438 2.089843.230468.859376.011718 1.777344-.582032 2.441407l-35.089844 42.941406c-13.8125 1.589844-27.011718 6.601563-38.398437 14.582031-2.707031-1.378906-5.574219-2.421875-8.535156-3.105468v-.214844c2.839843-12.199219 8.609375-23.523438 16.804687-32.996094 19.378906-23.75 43.246094-33.359375 63.777344-25.738281zm-111.71875-2.96875c.085938-.359375.152344-.726563.195312-1.09375.988282-15.246094 7.949219-29.488281 19.371094-39.636719 1.269532-.929688 2.996094-.929688 4.265625 0 11.449219 10.132812 18.429688 24.378906 19.421875 39.636719.046875.367187.109375.726562.199219 1.085937.269531 2.371094.398437 5.015625.441406 7.882813-3.242187 3.171875-6.304687 6.523437-9.171875 10.035156-4.558594 5.589844-8.558594 11.613281-11.949218 17.980469-3.386719-6.367188-7.390626-12.386719-11.945313-17.980469-3.472656-4.238281-7.238281-8.230469-11.265625-11.945313.113281-2.144531.222656-4.140624.4375-5.964843zm-68.164062 5.050781c.285156-.96875 1.027343-1.734375 1.988281-2.046875 20.589843-7.621094 44.441406 1.988281 63.8125 25.683594 7.878906 9.234375 13.515625 20.171875 16.460937 31.949219-.085937.496093-.136718.972656-.207031 1.460937-2.652344.636719-5.226563 1.566406-7.679687 2.761719-5.640626-4.023438-11.804688-7.257813-18.320313-9.617188-6.628906-2.347656-13.496094-3.96875-20.480469-4.828125l-35.070312-42.886719c-.570313-.691406-.757813-1.617187-.503906-2.476562zm19.171874 61.105469c10.546876.046875 21.015626 1.773437 31.011719 5.121093 3.589844 1.328126 7.050781 2.984376 10.335938 4.949219-3.148438 4.101563-5.421875 8.804688-6.683594 13.816407-.265625 0-.570313 0-.851563 0-14.949218 1.191406-29.21875 6.734374-41.054687 15.941406-.5625.410156-1.09375.851562-1.65625 1.296875l-15.273437-38.1875c7.894531-2.023438 16.023437-3.011719 24.171874-2.9375zm-242.457031-13.738281h193.246094l5.777344 14.335937c0 .09375 0 .1875.050781.273437.050781.085938.113281.144532.15625.238282l21.355469 53.421875h-247.890625zm-22.84375 102.402343v-17.066406h34.132813v17.066406c0 9.425781-7.640625 17.066407-17.066406 17.066407-9.425782 0-17.066407-7.640626-17.066407-17.066407zm25.601563 162.132813h17.066406v85.332031h-17.066406zm-34.132813 110.933594c0-4.714844 3.820313-8.535157 8.53125-8.535157h247.46875c4.710938 0 8.53125 3.820313 8.53125 8.535157 0 4.710937-3.820312 8.53125-8.53125 8.53125h-247.46875c-4.710937 0-8.53125-3.820313-8.53125-8.53125zm323.875 8.53125c-6.75.007812-12.710937-4.394532-14.695312-10.84375-.734375-11.015626-.757813-22.066407-.078125-33.085938 3.160156.808594 6.40625 1.230469 9.667968 1.265625h53.691407c3.261719-.035156 6.511719-.460937 9.667969-1.273437.679687 10.953124.660156 21.9375-.058594 32.886718-1.910156 6.539063-7.898438 11.039063-14.710938 11.050782zm0 0"/></svg>