<svg height="512pt" viewBox="0 0 512 512.02019" width="512pt" xmlns="http://www.w3.org/2000/svg"><path d="m153.601562 13.210938c-.453124-5.089844-3.558593-9.570313-8.164062-11.78125-4.445312-2.1875-9.71875-1.828126-13.824219.9375-13.902343 9.273437-28.871093 33.347656-29.210937 73.085937-.300782 20.886719 14.257812 39.050781 34.703125 43.308594 2.605469.472656 5.246093.714843 7.894531.714843 11.328125.019532 22.195312-4.464843 30.210938-12.46875 8.015624-8 12.523437-18.863281 12.523437-30.1875-.453125-11.480468-6.28125-22.074218-15.734375-28.605468-11.058594-8.328125-17.808594-21.171875-18.398438-35.003906zm7.886719 83.277343c-5.90625 4.941407-13.726562 6.953125-21.285156 5.480469-12.335937-2.6875-21.035156-13.753906-20.734375-26.378906.238281-28.757813 8.984375-47.164063 17.691406-55.78125 2.101563 16.238281 10.511719 30.996094 23.414063 41.078125 6.996093 6.316406 10.09375 9.378906 10.09375 15.933593.007812 7.601563-3.371094 14.808594-9.214844 19.667969zm0 0"/><path d="m17.152344 512.019531h477.699218c5.300782.023438 10.3125-2.421875 13.558594-6.613281 3.234375-4.132812 4.367188-9.535156 3.0625-14.617188l-5.121094-20.367187c-.765624-3.042969-2.050781-5.933594-3.804687-8.535156l-11.09375-16.453125c-4.046875-6.019532-10.320313-10.183594-17.441406-11.570313l-26.34375-5.222656c-3.117188-.617187-5.78125-2.625-7.234375-5.453125l-8.96875-17.757812c-3.785156-7.542969-10.859375-12.902344-19.148438-14.507813l-7.347656-1.464844c14.566406-31.0625 21.984375-64.996093 21.699219-99.304687 0-191.835938-156.78125-274.421875-188.210938-289.03125-5.101562-2.429688-11.210937-.804688-14.429687 3.839844-3.289063 4.550781-2.800782 10.816406 1.160156 14.796874 11.914062 12.238282 30.816406 38.542969 30.816406 57.0625 0 29.652344-29.101562 55.097657-62.789062 84.574219-46.566406 40.730469-99.347656 86.886719-99.347656 162.890625.015624 22.40625 4.679687 44.566406 13.699218 65.078125l-7.871094 1.558594c-8.289062 1.601563-15.367187 6.960937-19.15625 14.507813l-8.96875 17.757812c-1.453124 2.828125-4.117187 4.835938-7.234374 5.453125l-26.34375 5.222656c-7.125 1.394531-13.398438 5.566407-17.441407 11.597657l-11.09375 16.460937c-1.746093 2.605469-3.03125 5.492187-3.796875 8.53125l-5.121094 20.378906c-1.300781 5.082031-.171874 10.484375 3.0625 14.617188 3.257813 4.171875 8.261719 6.601562 13.550782 6.570312zm146.117187-52.179687c2.378907-.03125 4.746094-.339844 7.050781-.921875h.460938c.152344 0 .398438-.1875.621094-.25 2.175781-.59375 4.28125-1.429688 6.273437-2.488281.324219-.171876.613281-.394532.929688-.582032 1.734375-1.015625 3.363281-2.203125 4.863281-3.542968.308594-.273438.632812-.511719.921875-.800782 1.574219-1.535156 2.976563-3.234375 4.191406-5.070312.28125-.425782.535157-.851563.800781-1.3125 1.21875-1.984375 2.214844-4.09375 2.96875-6.296875 1.332032-4.128907 4.519532-7.394531 8.609376-8.824219l4.636718-1.570312c7.152344-2.5 13.132813-7.542969 16.800782-14.171876.222656-.273437.425781-.558593.613281-.855468.769531-1.484375 1.414062-3.027344 1.929687-4.617188l1.195313-3.667968c.367187-1.117188.871093-2.1875 1.5-3.183594 1.832031-2.960938 4.738281-5.101563 8.105469-5.972656l4.6875-1.195313c3.082031-.757813 6.222656-1.28125 9.386718-1.5625 7.300782-.746094 14.675782-.214844 21.792969 1.5625l4.660156 1.1875c4.554688 1.179687 8.183594 4.621094 9.597657 9.113281l1.203124 3.667969.054688.121094c.710938 2.109375 1.652344 4.136719 2.796875 6.050781.332031.5625.75 1.039062 1.117187 1.578125.890626 1.347656 1.886719 2.628906 2.980469 3.820313.503907.53125 1.046875.992187 1.578125 1.484374 1.097656 1.03125 2.269532 1.980469 3.507813 2.835938.691406.476562 1.398437.894531 2.132812 1.3125.570313.324219 1.082031.742188 1.707031 1.023438.296876.089843.597657.160156.902344.214843.855469.390625 1.707032.929688 2.5625 1.238281l4.632813 1.570313c1.003906.339844 1.964843.800781 2.859375 1.371094 2.71875 1.746093 4.75 4.378906 5.75 7.449219.753906 2.207031 1.75 4.324218 2.96875 6.308593.265625.441407.519531.851563.804687 1.296875 1.207031 1.851563 2.609375 3.570313 4.1875 5.121094.289063.28125.613281.511719.914063.785156 1.503906 1.339844 3.136718 2.53125 4.871094 3.558594.316406.175781.605468.398438.929687.570312 1.992187 1.0625 4.097656 1.898438 6.273437 2.492188.222657.058594.402344.1875.625.246094.21875.058594.535157.058594.800782.101562 2.195312.535156 4.445312.824219 6.707031.855469h11.511719c2.660156 0 5.261718.808594 7.457031 2.3125l17.578125 11.945313c2.265625 1.539062 4.730469 2.761718 7.324219 3.644531l12.292969 4.179687c4.097656 1.429688 7.285156 4.695313 8.621093 8.824219l1.382813 4.214844h-78.566406l-20.328126-20.324219c-8.382812-8.363281-18.585937-14.671875-29.816406-18.433594-19.792968-5.210937-40.59375-5.210937-60.386718 0-11.226563 3.761719-21.429688 10.070313-29.808594 18.433594l-20.328125 20.265625h-78.566407l1.382813-4.214844c1.332031-4.125 4.519531-7.390625 8.609375-8.824219l12.316406-4.179687c2.589844-.886719 5.050782-2.109375 7.320313-3.644531l17.5625-11.945313c2.199219-1.507812 4.800781-2.3125 7.464843-2.316406zm142.335938-52.464844c-.101563-.136719-.203125-.253906-.296875-.390625-.863282-1.15625-1.546875-2.4375-2.023438-3.796875l-1.203125-3.679688c-.8125-2.492187-1.933593-4.875-3.335937-7.089843-4.171875-6.597657-10.714844-11.34375-18.277344-13.261719l-4.679688-1.1875c-12.984374-3.296875-26.589843-3.296875-39.574218 0l-4.6875 1.195312c-2.25.597657-4.421875 1.457032-6.476563 2.558594-.605469.308594-1.160156.667969-1.707031 1.015625-1.46875.894531-2.863281 1.90625-4.164062 3.03125-.476563.417969-.972657.800781-1.425782 1.253907-1.601562 1.527343-3.03125 3.222656-4.265625 5.058593-13.191406-19.15625-25.753906-43.730469-25.753906-67.796875 0-41.136718 31.710937-67.410156 62.386719-92.824218 24.355468-20.191407 47.472656-39.347657 55.253906-65.339844 16.855469 19.5 44.492188 57.003906 44.492188 132.566406-.601563 40.496094-16.398438 79.289062-44.261719 108.6875zm-105.804688 87.578125 8.261719-8.261719c6.507812-6.488281 14.425781-11.382812 23.140625-14.300781 16.285156-4.050781 33.3125-4.050781 49.597656 0 8.714844 2.917969 16.632813 7.8125 23.140625 14.300781l8.261719 8.261719zm209.195313-87.289063c3.128906.59375 5.804687 2.609376 7.238281 5.453126l8.964844 17.757812c3.792969 7.542969 10.871093 12.902344 19.160156 14.507812l26.339844 5.222657c2.6875.535156 5.054687 2.101562 6.597656 4.359375l11.09375 16.445312c.652344.96875 1.132813 2.042969 1.417969 3.175782l5.128906 20.367187h-62.082031l-3.113281-9.523437c-3.019532-9.222657-10.175782-16.503907-19.347657-19.675782l-12.304687-4.183594c-1.140625-.386718-2.226563-.925781-3.226563-1.605468l-17.566406-11.945313c-3.441406-2.320312-7.324219-3.90625-11.402344-4.660156 11.9375-11.234375 22.234375-24.09375 30.59375-38.195313zm-204.550782-233.425781c35.292969-30.859375 68.625-60.023437 68.625-97.417969-1.621093-17.460937-8.128906-34.117187-18.773437-48.050781 51.453125 30.128907 155.304687 109.652344 155.304687 261.382813.398438 35.226562-8.113281 69.980468-24.746093 101.035156-.058594.09375-.144531.152344-.195313.246094-8.054687 14.542968-18.273437 27.78125-30.304687 39.253906l-.417969.386719c-3.714844 3.488281-7.625 6.769531-11.707031 9.828125-.210938-.117188-.453125-.203125-.65625-.339844-.582031-.421875-1.128907-.890625-1.636719-1.398438-.242188-.214843-.503906-.386718-.726562-.625-.382813-.339843-.746094-.703124-1.082032-1.09375-.988281-1.253906-1.757812-2.667968-2.273437-4.179687-2.523438-7.554687-7.863281-13.84375-14.90625-17.5625 29.21875-32.011719 45.59375-73.679687 45.988281-117.015625 0-89.070312-37.277344-130.988281-53.191406-148.882812l-6.542969 5.523437-6.203125 5.851563-.171875-.1875 6.375-5.664063 6.382813-5.675781c-3.367188-3.84375-8.640626-5.410156-13.558594-4.035156-5.050782 1.398437-8.855469 5.566406-9.789063 10.726562-4.410156 23.414062-27.042969 42.160156-51.003906 62.019531-32.136719 26.5625-68.566406 56.761719-68.566406 105.921875 0 31.652344 17.683593 62.808594 34.074219 84.898438-1.335938 1.246094-2.914063 2.203125-4.632813 2.816406l-4.632813 1.570312c-9.171874 3.171876-16.332031 10.453126-19.347656 19.679688v.066406c-.511718 1.488282-1.265625 2.882813-2.234375 4.121094-.34375.390625-.710937.761719-1.09375 1.109375-.703125.757813-1.488281 1.429687-2.34375 2.007813-.214843.136718-.453125.21875-.675781.347656-4.222656-3.140625-8.277344-6.507813-12.144531-10.085938l-.46875-.417968c-3.734375-3.511719-7.289063-7.214844-10.640625-11.09375-.273438-.324219-.570313-.632813-.851563-.957032-3.132812-3.667968-6.042969-7.523437-8.800781-11.484375-.449219-.648437-.917969-1.28125-1.355469-1.929687-2.507812-3.734375-4.796875-7.609375-6.945312-11.570313-11.542969-21.195312-17.605469-44.941406-17.636719-69.078125 0-68.265625 49.679688-111.707031 93.507812-150.046875zm-182.257812 300.347657c.285156-1.128907.761719-2.203126 1.410156-3.167969l11.09375-16.453125c1.542969-2.273438 3.917969-3.847656 6.613282-4.386719l26.339843-5.21875c8.289063-1.605469 15.367188-6.964844 19.160157-14.507813l8.96875-17.757812c1.429687-2.84375 4.105468-4.859375 7.234374-5.453125l12.476563-2.484375c.253906.453125.578125.855469.851563 1.289062 2.511718 4.261719 5.214843 8.398438 8.117187 12.417969.597656.851563 1.195313 1.644531 1.808594 2.457031 3.089843 4.132813 6.375 8.117188 9.863281 11.945313.511719.554687 1.035156 1.101563 1.554688 1.65625 2.707031 2.890625 5.515624 5.683594 8.421874 8.386719-4.074218.761718-7.953124 2.347656-11.390624 4.660156l-17.5625 11.945312c-.996094.675782-2.078126 1.214844-3.21875 1.605469l-12.320313 4.179688c-9.179687 3.1875-16.339844 10.488281-19.347656 19.730469l-3.121094 9.523437h-62.070313zm0 0"/><path d="m469.335938 401.085938c4.710937 0 8.53125-3.820313 8.53125-8.53125v-8.535157h8.535156c4.710937 0 8.535156-3.820312 8.535156-8.53125 0-4.714843-3.824219-8.535156-8.535156-8.535156h-8.535156v-8.53125c0-4.714844-3.820313-8.535156-8.53125-8.535156-4.714844 0-8.535157 3.820312-8.535157 8.535156v8.53125h-8.53125c-4.714843 0-8.535156 3.820313-8.535156 8.535156 0 4.710938 3.820313 8.53125 8.535156 8.53125h8.53125v8.535157c0 4.710937 3.820313 8.53125 8.535157 8.53125zm0 0"/><path d="m68.269531 179.21875h8.53125v8.535156c0 4.710938 3.820313 8.53125 8.535157 8.53125 4.710937 0 8.53125-3.820312 8.53125-8.53125v-8.535156h8.535156c4.710937 0 8.535156-3.820312 8.535156-8.53125 0-4.714844-3.824219-8.535156-8.535156-8.535156h-8.535156v-8.53125c0-4.714844-3.820313-8.535156-8.53125-8.535156-4.714844 0-8.535157 3.820312-8.535157 8.535156v8.53125h-8.53125c-4.714843 0-8.535156 3.820312-8.535156 8.535156 0 4.710938 3.820313 8.53125 8.535156 8.53125zm0 0"/></svg>