<svg height="511pt" viewBox="0 -2 511.9999 511" width="511pt" xmlns="http://www.w3.org/2000/svg"><path d="m20.121094 356.058594c1.953125 4.125 6.808594 5.980468 11.019531 4.214844 4.207031-1.769532 6.277344-6.535157 4.699219-10.820313-6.074219-14.464844-10.738282-29.480469-13.933594-44.84375-6.476562-31.738281-6.476562-64.460937 0-96.203125 12.640625-61.226562 48.765625-115.0625 100.625-149.972656 25.78125-17.527344 54.785156-29.765625 85.332031-36.011719 31.746094-6.445313 64.464844-6.445313 96.214844 0 15.34375 3.195313 30.351563 7.855469 44.808594 13.917969 4.410156 1.902344 8.652343 3.917968 12.796875 5.972656l-19.054688 30.464844c-1.585937 2.515625-1.75 5.675781-.433594 8.339844 1.320313 2.667968 3.933594 4.453124 6.894532 4.714843l93.867187 8.535157h.777344c3.148437 0 6.039063-1.734376 7.523437-4.507813 1.484376-2.777344 1.320313-6.144531-.425781-8.761719l-51.199219-76.800781c-1.636718-2.378906-4.339843-3.800781-7.226562-3.796875-2.898438.042969-5.574219 1.554688-7.109375 4.011719l-14.539063 23.292969c-4.890624-2.472657-9.917968-4.894532-15.199218-7.175782-15.484375-6.5-31.558594-11.496094-48-14.921875-34.027344-6.914062-69.097656-6.914062-103.125 0-49.027344 10.195313-94.007813 34.488281-129.425782 69.886719-23.304687 23.390625-41.933593 51.011719-54.886718 81.382812-6.492188 15.476563-11.484375 31.535157-14.914063 47.964844-6.941406 34.023438-6.941406 69.101563 0 103.125 3.425781 16.4375 8.421875 32.507813 14.914063 47.992188zm372.644531-331.296875 33.96875 50.960937-62.292969-5.667968 16.84375-26.886719v-.050781zm0 0"/><path d="m491.878906 152.675781c-1.859375-4.285156-6.824218-6.28125-11.132812-4.472656-4.304688 1.808594-6.359375 6.746094-4.601563 11.078125 6.070313 14.464844 10.738281 29.480469 13.933594 44.839844 6.472656 31.742187 6.472656 64.464844 0 96.207031-12.640625 61.222656-48.753906 115.058594-100.609375 149.972656-25.78125 17.527344-54.785156 29.765625-85.332031 36.011719-31.746094 6.445312-64.464844 6.445312-96.214844 0-15.34375-3.199219-30.351563-7.859375-44.808594-13.917969-4.410156-1.902343-8.652343-3.917969-12.796875-5.972656l19.042969-30.472656c1.574219-2.515625 1.726563-5.664063.410156-8.316407-1.316406-2.65625-3.917969-4.4375-6.867187-4.707031l-93.867188-8.535156c-3.273437-.296875-6.429687 1.308594-8.113281 4.136719-1.679687 2.824218-1.589844 6.363281.238281 9.101562l51.199219 76.796875c1.582031 2.378907 4.25 3.808594 7.105469 3.808594h.128906c2.898438-.042969 5.574219-1.554687 7.109375-4.011719l14.507813-23.277344c4.886718 2.472657 9.914062 4.898438 15.195312 7.175782 15.488281 6.492187 31.5625 11.484375 48 14.90625 34.023438 6.945312 69.101562 6.945312 103.125 0 49.039062-10.191406 94.035156-34.480469 129.460938-69.886719 23.304687-23.390625 41.933593-51.011719 54.886718-81.382813 6.492188-15.488281 11.488282-31.5625 14.914063-48 6.941406-34.023437 6.941406-69.101562 0-103.125-3.429688-16.425781-8.425781-32.484374-14.914063-47.957031zm-372.644531 331.296875-33.96875-50.960937 62.292969 5.667969-16.84375 26.886718v.050782zm0 0"/><path d="m424.046875 227.726562c0-.300781.066406-.574218 0-.855468s-.1875-.410156-.246094-.628906c-3.417969-19.070313-10.089843-37.414063-19.722656-54.222657-.074219-.289062-.167969-.574219-.28125-.851562-.214844-.304688-.457031-.589844-.714844-.855469-9.738281-16.597656-22.191406-31.441406-36.847656-43.910156-.167969-.234375-.347656-.460938-.539063-.675782-.152343-.128906-.339843-.152343-.503906-.273437-14.898437-12.382813-31.796875-22.136719-49.96875-28.84375-.277344-.1875-.5625-.363281-.855468-.519531-.316407-.066406-.632813-.113282-.953126-.144532-37.078124-13.527343-77.742187-13.527343-114.816406 0-.324218.027344-.648437.074219-.964844.144532-.296874.15625-.578124.332031-.855468.519531-18.171875 6.707031-35.070313 16.460937-49.96875 28.84375-.164063.121094-.359375.144531-.503906.273437-.191407.214844-.371094.441407-.539063.675782-14.652344 12.46875-27.105469 27.3125-36.835937 43.910156-.265626.265625-.507813.550781-.726563.855469-.113281.277343-.207031.5625-.28125.851562-9.636719 16.8125-16.3125 35.15625-19.738281 54.230469-.09375.207031-.179688.421875-.246094.640625-.054688.289063.042969.5625 0 .851563-3.496094 19.023437-3.496094 38.523437 0 57.550781 0 .296875-.070312.570312 0 .851562.070312.242188.15625.476563.253906.707031 3.4375 19.039063 10.109375 37.34375 19.730469 54.128907.074219.289062.167969.574219.28125.851562.300781.492188.652344.949219 1.050781 1.367188 9.683594 16.375 22.023438 31.03125 36.511719 43.367187.167969.234375.347656.457032.539063.671875.160156.136719.375.1875.546874.316407 14.886719 12.363281 31.773438 22.101562 49.925782 28.800781.277344.1875.558594.363281.855468.519531.359376.085938.722657.152344 1.089844.195312 37 13.460938 77.554688 13.460938 114.554688 0 .367187-.042968.730468-.109374 1.089844-.195312.292968-.15625.578124-.332031.855468-.519531 18.152344-6.703125 35.035156-16.441407 49.925782-28.800781.171874-.128907.386718-.179688.546874-.316407.191407-.214843.371094-.4375.539063-.671875 14.496094-12.332031 26.84375-26.988281 36.539063-43.367187.386718-.417969.730468-.875 1.023437-1.367188.113281-.277343.207031-.5625.28125-.851562 9.625-16.792969 16.296875-35.113281 19.730469-54.160157.097656-.234374.183594-.46875.253906-.710937.050781-.289063-.042969-.5625 0-.851563 3.496094-19.023437 3.496094-38.527343 0-57.550781zm-63.085937 140.601563-5.1875-6.183594c-1.9375-2.417969-5.03125-3.597656-8.082032-3.085937-3.054687.515625-5.589844 2.644531-6.625 5.566406-1.035156 2.917969-.40625 6.167969 1.640625 8.492188l5.179688 6.167968c-9.710938 7.351563-20.265625 13.519532-31.4375 18.375l-2.824219-7.757812c-1.695312-4.300782-6.507812-6.472656-10.855469-4.890625-4.34375 1.578125-6.640625 6.332031-5.179687 10.71875l2.824218 7.765625c-11.671874 3.476562-23.71875 5.550781-35.878906 6.167968v-8.097656c0-4.710937-3.824218-8.53125-8.535156-8.53125s-8.535156 3.820313-8.535156 8.53125v8.097656c-12.164063-.617187-24.214844-2.691406-35.890625-6.167968l2.824219-7.765625c1.140624-2.886719.621093-6.164063-1.355469-8.558594-1.972657-2.394531-5.089844-3.527344-8.140625-2.960937-3.050782.566406-5.554688 2.746093-6.535156 5.691406l-2.824219 7.757812c-11.171875-4.855468-21.726563-11.023437-31.4375-18.375l5.179687-6.167968c2.046875-2.324219 2.675782-5.574219 1.640625-8.492188-1.035156-2.921875-3.570312-5.050781-6.625-5.566406-3.054687-.511719-6.144531.667968-8.082031 3.085937l-5.1875 6.183594c-8.886719-8.320313-16.765625-17.660156-23.464844-27.824219l7.0625-4.082031c2.664063-1.511719 4.308594-4.335937 4.316406-7.398437.007813-3.0625-1.628906-5.894532-4.28125-7.417969-2.65625-1.523438-5.925781-1.511719-8.566406.039062l-7.03125 4.070313c-5.515625-10.871094-9.707031-22.363282-12.484375-34.226563l8.039063-1.417969c4.640625-.820312 7.738281-5.25 6.917968-9.890624-.820312-4.640626-5.246093-7.742188-9.890624-6.921876l-8.070313 1.425782c-1.570313-12.089844-1.570313-24.328125 0-36.417969l8.070313 1.421875c.496093.085938.996093.128906 1.496093.128906 4.425781.003906 8.121094-3.382812 8.503907-7.792968.382812-4.410157-2.667969-8.382813-7.027344-9.144532l-8.039063-1.367187c2.78125-11.855469 6.972657-23.339844 12.484375-34.199219l7.03125 4.070312c2.640625 1.546876 5.910156 1.5625 8.566406.039063 2.652344-1.527344 4.289063-4.359375 4.28125-7.421875-.007812-3.058594-1.652343-5.882812-4.316406-7.398438l-7.0625-4.078124c6.703125-10.160157 14.582032-19.496094 23.472656-27.808594l5.1875 6.183594c1.9375 2.417968 5.03125 3.597656 8.082032 3.082031 3.054687-.511719 5.589844-2.644531 6.625-5.5625s.40625-6.167969-1.640625-8.492188l-5.179688-6.167969c9.710938-7.351562 20.265625-13.519531 31.4375-18.375l2.824219 7.757813c.980469 2.945313 3.484375 5.125 6.535156 5.691406 3.050782.566407 6.167969-.566406 8.144532-2.960937 1.972656-2.394532 2.492187-5.671875 1.355468-8.558594l-2.828125-7.765625c11.671875-3.492187 23.71875-5.578125 35.882813-6.210937v8.097656c0 4.710937 3.824218 8.53125 8.535156 8.53125s8.535156-3.820313 8.535156-8.53125v-8.097656c12.164063.617187 24.214844 2.6875 35.890625 6.167968l-2.824219 7.765625c-1.140624 2.886719-.621093 6.164063 1.355469 8.558594 1.972657 2.394531 5.089844 3.527344 8.140625 2.960937 3.050782-.566406 5.554688-2.746093 6.535156-5.691406l2.824219-7.757812c11.171875 4.855468 21.726563 11.023437 31.4375 18.375l-5.179687 6.167968c-2.046875 2.324219-2.675782 5.574219-1.640625 8.492188 1.035156 2.921875 3.570312 5.050781 6.625 5.566406 3.050781.511719 6.144531-.667968 8.082031-3.085937l5.179688-6.140625c8.886718 8.320312 16.765624 17.660156 23.464843 27.824218l-7.066406 4.082032c-2.660156 1.511718-4.308594 4.335937-4.3125 7.398437-.007813 3.0625 1.625 5.890625 4.28125 7.417969 2.65625 1.523438 5.925781 1.511719 8.566406-.039062l7.03125-4.070313c5.511719 10.855469 9.707031 22.332031 12.492188 34.183594l-8.039063 1.417969c-4.359375.765624-7.410156 4.734374-7.027344 9.144531.382813 4.414062 4.078126 7.796875 8.503907 7.792969.5 0 1-.042969 1.496093-.125l8.070313-1.425782c1.570313 12.089844 1.570313 24.328125 0 36.417969l-8.070313-1.421875c-3.003906-.53125-6.0625.578125-8.023437 2.914062-1.960937 2.335938-2.527344 5.539063-1.484375 8.40625 1.042969 2.867188 3.535156 4.957032 6.535156 5.488282l8.039063 1.417968c-2.78125 11.855469-6.972657 23.339844-12.484375 34.199219l-7.03125-4.070312c-2.640625-1.546875-5.910156-1.5625-8.566406-.035157-2.652344 1.523438-4.289063 4.355469-4.28125 7.417969.007812 3.0625 1.652343 5.882813 4.316406 7.398438l7.0625 4.078125c-6.703125 10.15625-14.582032 19.488281-23.472656 27.800781zm0 0"/><path d="m341.332031 247.964844h-61.300781c-2.582031-7.226563-8.269531-12.914063-15.496094-15.496094v-86.902344c0-4.710937-3.824218-8.53125-8.535156-8.53125s-8.535156 3.820313-8.535156 8.53125v86.902344c-11.230469 3.949219-18.246094 15.136719-16.910156 26.96875 1.339843 11.832031 10.675781 21.167969 22.507812 22.507812 11.832031 1.335938 23.019531-5.679687 26.96875-16.910156h61.300781c4.714844 0 8.535157-3.824218 8.535157-8.535156s-3.820313-8.535156-8.535157-8.535156zm-85.332031 17.070312c-4.710938 0-8.535156-3.824218-8.535156-8.535156s3.824218-8.535156 8.535156-8.535156 8.535156 3.824218 8.535156 8.535156-3.824218 8.535156-8.535156 8.535156zm0 0"/></svg>