<?xml version="1.0" encoding="iso-8859-1"?>
<!-- Generator: Adobe Illustrator 19.0.0, SVG Export Plug-In . SVG Version: 6.00 Build 0)  -->
<svg version="1.1" id="Layer_1" xmlns="http://www.w3.org/2000/svg" xmlns:xlink="http://www.w3.org/1999/xlink" x="0px" y="0px"
	 viewBox="0 0 512 512" style="enable-background:new 0 0 512 512;" xml:space="preserve">
<g transform="translate(1 1)">
	<g>
		<g>
			<path d="M161.133,75.8C114.2,75.8,75.8,114.2,75.8,161.133c0,46.933,38.4,85.333,85.333,85.333
				c46.933,0,85.333-38.4,85.333-85.333C246.467,114.2,208.067,75.8,161.133,75.8z M161.133,229.4
				c-37.547,0-68.267-30.72-68.267-68.267c0-37.547,30.72-68.267,68.267-68.267c37.547,0,68.267,30.72,68.267,68.267
				C229.4,198.68,198.68,229.4,161.133,229.4z"/>
			<path d="M502.467,348.867h-17.92c-3.413,0-5.973-1.707-7.68-5.12c-0.853-2.56-0.853-5.973,1.707-8.533l12.8-12.8
				c3.413-3.413,3.413-8.533,0-11.947l-35.84-35.84c-3.413-3.413-8.533-3.413-11.947,0l-12.8,12.8
				c-1.707,1.707-5.12,2.56-7.68,1.707h-0.853c-3.413-1.707-5.12-4.267-5.12-7.68v-17.92c0-5.12-3.413-8.533-8.533-8.533h-51.2
				c-5.12,0-8.533,3.413-8.533,8.533v17.92c0,3.413-1.707,5.973-5.12,7.68c-2.56,0.853-5.973,0.853-8.533-1.707l-12.8-12.8
				c-3.413-3.413-8.533-3.413-11.947,0l-35.84,35.84c-3.413,3.413-3.413,8.533,0,11.947l12.8,12.8c1.707,1.707,2.56,5.12,1.707,7.68
				v0.853c-1.707,3.413-4.267,5.12-7.68,5.12h-17.92c-5.12,0-8.533,3.413-8.533,8.533v51.2c0,5.12,3.413,8.533,8.533,8.533h17.92
				c3.413,0,5.973,1.707,7.68,5.12c0.853,2.56,0.853,5.973-1.707,8.533l-12.8,12.8c-3.413,3.413-3.413,8.533,0,11.947l35.84,35.84
				c3.413,3.413,8.533,3.413,11.947,0l12.8-12.8c1.707-1.707,5.12-2.56,7.68-1.707h0.853c3.413,1.707,5.12,4.267,5.12,7.68v17.92
				c0,5.12,3.413,8.533,8.533,8.533h51.2c5.12,0,8.533-3.413,8.533-8.533v-17.92c0-3.413,1.707-5.973,5.12-7.68
				c2.56-0.853,5.973-0.853,8.533,1.707l12.8,12.8c3.413,3.413,8.533,3.413,11.947,0l35.84-35.84c3.413-3.413,3.413-8.533,0-11.947
				l-12.8-12.8c-1.707-1.707-2.56-5.12-1.707-7.68v-0.853c1.707-3.413,4.267-5.12,7.68-5.12h17.92c5.12,0,8.533-3.413,8.533-8.533
				v-51.2C511,352.28,507.587,348.867,502.467,348.867z M493.933,400.067H485.4c-10.24,0-18.773,5.973-23.04,15.36
				s-1.707,20.48,5.12,27.307l5.12,5.973L448.707,472.6l-5.973-5.973c-6.827-6.827-17.92-9.387-27.307-5.12
				c-9.387,3.413-15.36,12.8-15.36,23.04v9.387h-33.28v-9.387c0-10.24-5.973-18.773-15.36-23.04
				c-9.387-4.267-20.48-1.707-27.307,5.12l-6.827,6.827L293.4,449.56l5.973-5.973c6.827-6.827,9.387-17.92,5.12-27.307
				c-3.413-9.387-12.8-15.36-23.04-15.36h-9.387v-34.133h10.24c10.24,0,18.773-5.973,23.04-15.36
				c4.267-9.387,1.707-20.48-5.12-27.307l-6.827-6.827l23.893-23.893l5.973,5.973c6.827,6.827,17.92,9.387,27.307,5.12
				c9.387-3.413,15.36-12.8,15.36-23.04v-9.387h34.133v8.533c0,10.24,5.973,18.773,15.36,23.04s20.48,1.707,27.307-5.12l5.973-5.12
				l23.893,23.893l-5.973,5.973c-6.827,6.827-9.387,17.92-5.12,27.307c3.413,9.387,12.8,15.36,23.04,15.36h9.387V400.067z"/>
			<path d="M383,323.267c-33.28,0-59.733,26.453-59.733,59.733c0,33.28,26.453,59.733,59.733,59.733
				c33.28,0,59.733-26.453,59.733-59.733C442.733,349.72,416.28,323.267,383,323.267z M383,425.667
				c-23.893,0-42.667-18.773-42.667-42.667c0-23.893,18.773-42.667,42.667-42.667c23.893,0,42.667,18.773,42.667,42.667
				C425.667,406.893,406.893,425.667,383,425.667z"/>
			<path d="M294.253,257.56c3.413-3.413,3.413-8.533,0-11.947l-1.707-1.707c-7.68-7.68-10.24-20.48-5.12-31.573
				c4.267-11.093,14.507-17.92,25.6-17.92h1.707c5.12,0,8.533-3.413,8.533-8.533v-51.2c0-5.12-3.413-8.533-8.533-8.533h-2.56
				c-11.093,0-21.333-6.827-25.6-17.92c-5.12-11.093-2.56-23.04,5.12-30.72L293.4,75.8c3.413-3.413,3.413-8.533,0-11.947
				l-35.84-35.84c-3.413-3.413-8.533-3.413-11.947,0l-1.707,1.707c-7.68,7.68-20.48,10.24-31.573,5.12
				c-11.093-4.267-17.92-14.507-17.92-25.6V7.533C194.413,2.413,191-1,185.88-1h-51.2c-5.12,0-8.533,3.413-8.533,8.533v2.56
				c0,11.093-6.827,21.333-17.92,25.6c-11.093,5.12-23.04,2.56-30.72-5.12L75.8,28.867c-3.413-3.413-8.533-3.413-11.947,0
				l-35.84,35.84c-3.413,3.413-3.413,8.533,0,11.947l1.707,1.707c7.68,7.68,10.24,20.48,5.12,31.573
				c-4.267,11.093-14.507,17.92-25.6,17.92H7.533c-5.12,0-8.533,3.413-8.533,8.533v51.2c0,5.12,3.413,8.533,8.533,8.533H9.24
				c11.093,0,21.333,6.827,25.6,17.92c5.12,11.093,2.56,23.04-5.12,30.72l-1.707,1.707c-3.413,3.413-3.413,8.533,0,11.947
				l35.84,35.84c3.413,3.413,8.533,3.413,11.947,0l1.707-1.707c7.68-7.68,20.48-10.24,31.573-5.12
				c11.093,4.267,17.92,14.507,17.92,25.6v1.707c0,5.12,3.413,8.533,8.533,8.533h51.2c5.12,0,8.533-3.413,9.387-8.533v-2.56
				c0-11.093,6.827-21.333,17.92-25.6c11.093-5.12,23.04-2.56,30.72,5.12l1.707,1.707c3.413,3.413,8.533,3.413,11.947,0
				L294.253,257.56z M250.733,276.333c-11.947-8.533-29.013-11.093-44.373-4.267C191,278.04,180.76,290.84,178.2,306.2h-34.987
				c-1.707-15.36-12.8-28.16-28.16-35.84c-15.36-5.973-31.573-4.267-44.373,5.12l-24.747-24.747
				c8.533-11.947,11.093-29.013,4.267-44.373c-5.973-15.36-18.773-25.6-34.133-28.16v-34.987c15.36-2.56,29.013-12.8,34.987-28.16
				s4.267-31.573-5.12-44.373L70.68,46.787c11.947,8.533,29.013,11.093,44.373,4.267c15.36-5.973,25.6-18.773,28.16-34.133H178.2
				c2.56,15.36,12.8,29.013,28.16,34.987s31.573,4.267,44.373-5.12l24.747,24.747c-8.533,11.947-11.093,29.013-4.267,44.373
				c5.973,15.36,18.773,25.6,34.133,28.16v34.987c-15.36,2.56-29.013,12.8-34.987,28.16c-5.973,15.36-4.267,31.573,5.12,44.373
				L250.733,276.333z"/>
		</g>
	</g>
</g>
<g>
</g>
<g>
</g>
<g>
</g>
<g>
</g>
<g>
</g>
<g>
</g>
<g>
</g>
<g>
</g>
<g>
</g>
<g>
</g>
<g>
</g>
<g>
</g>
<g>
</g>
<g>
</g>
<g>
</g>
</svg>
