<?xml version="1.0" encoding="iso-8859-1"?>
<!-- Generator: Adobe Illustrator 19.0.0, SVG Export Plug-In . SVG Version: 6.00 Build 0)  -->
<svg version="1.1" id="Layer_1" xmlns="http://www.w3.org/2000/svg" xmlns:xlink="http://www.w3.org/1999/xlink" x="0px" y="0px"
	 viewBox="0 0 512.001 512.001" style="enable-background:new 0 0 512.001 512.001;" xml:space="preserve">
<path style="fill:#FDDD85;" d="M343.77,215.204V87.77c0-48.474-39.296-87.77-87.77-87.77l0,0c-48.474,0-87.77,39.296-87.77,87.77
	v127.434h36.324V85.823c0-28.413,23.033-51.446,51.446-51.446l0,0c28.413,0,51.446,23.033,51.446,51.446v129.381H343.77z"/>
<path style="fill:#F07B52;" d="M394.664,511.996H117.337c-14.294,0-25.881-11.587-25.881-25.881v-245.03
	c0-14.294,11.587-25.881,25.881-25.881h277.328c14.294,0,25.881,11.587,25.881,25.881v245.03
	C420.545,500.409,408.958,511.996,394.664,511.996z"/>
<path style="fill:#DD6140;" d="M420.543,241.088v245.029c0,14.293-11.58,25.884-25.884,25.884h-51.218
	c14.293,0,25.873-11.591,25.873-25.884V241.088c0-14.293-11.58-25.884-25.873-25.884h51.218
	C408.962,215.204,420.543,226.796,420.543,241.088z"/>
<path style="fill:#FFFFFF;" d="M278.692,341.973c0-12.533-10.16-22.692-22.693-22.692s-22.692,10.16-22.692,22.692
	c0,7.64,3.78,14.393,9.566,18.505v19.91c0,7.22,5.907,13.126,13.126,13.126l0,0c7.22,0,13.126-5.907,13.126-13.126v-19.91
	C274.914,356.365,278.692,349.612,278.692,341.973z"/>
<g>
</g>
<g>
</g>
<g>
</g>
<g>
</g>
<g>
</g>
<g>
</g>
<g>
</g>
<g>
</g>
<g>
</g>
<g>
</g>
<g>
</g>
<g>
</g>
<g>
</g>
<g>
</g>
<g>
</g>
</svg>
