<svg height="512" viewBox="0 0 61 52" width="512" xmlns="http://www.w3.org/2000/svg"><g id="Page-1" fill="none" fill-rule="evenodd"><g id="050---Pool" fill="rgb(0,0,0)" fill-rule="nonzero"><path id="Shape" d="m52 15.317v-8.317c0-.55228475.4477153-1 1-1s1 .44771525 1 1c0 1.65685425 1.3431458 3 3 3s3-1.34314575 3-3c.0030533-3.14829889-2.0980822-5.91048058-5.1329731-6.747877-3.0348908-.83739642-6.2551863.45647965-7.8670269 3.160877-1.6118406-2.70439735-4.8321361-3.99827342-7.8670269-3.160877-3.0348909.83739642-5.1360264 3.59957811-5.1329731 6.747877v6.275c-1.3926663.5232352-2.7239173 1.1972439-3.97 2.01-2.6029024 1.6721299-5.7997703 2.1425148-8.774 1.291-6.5252673-1.8132675-13.48547405.6768248-17.37968617 6.2177782-3.89421212 5.5409533-3.87934327 12.9331665.03712761 18.4584094 3.91647088 5.5252428 10.88663846 7.9873152 17.40455856 6.1478124 2.9585113-.842257 6.1369102-.3595869 8.712 1.323 3.2388011 2.1442561 7.0387222 3.2842672 10.923 3.277.7990112-.000269 1.5973402-.0466796 2.391-.139 8.3435315-.9767002 15.1853902-7.0673192 17.1216023-15.2416415s-1.4466755-16.6868273-8.4656023-21.3023585zm-15 8.683c1.2667854-.0052514 2.3937454-.8056491 2.816-2h6.368c.371368 1.0617269 1.3078653 1.8246818 2.4227407 1.9737824s2.218947-.3409538 2.8562593-1.2677824c2.6547197 2.9599491 3.9120512 6.916556 3.453 10.866-.7336953 6.4525659-5.8026617 11.5567046-12.25 12.335-.5530512.0633848-1.1093303.0944376-1.666.093-2.7274827.0039631-5.3956411-.7960322-7.671-2.3-4.0334703-2.6188647-8.9992832-3.3741754-13.629-2.073-1.3079427.3636867-2.6753268.4626197-4.022.291-3.6791829-.5199145-6.76673206-3.0369418-8.01734964-6.5358922s-.45806973-7.4028272 2.05798612-10.1370842c2.51605582-2.7342569 6.34070792-3.8479997 9.93136352-2.8920236 4.6449143 1.3074206 9.6276068.5575767 13.682-2.059.217-.144.444-.27.668-.4v1.106c0 1.6568542 1.3431458 3 3 3zm3-4v-2h6v2zm6-4h-6v-2h6zm0-4h-6v-5c0-.55228475.4477153-1 1-1s1 .44771525 1 1c0 1.65685425 1.3431458 3 3 3 .3414397-.00331443.679743-.06556225 1-.184zm7-10c2.7600532.00330612 4.9966939 2.23994685 5 5 0 .55228475-.4477153 1-1 1s-1-.44771525-1-1c0-1.65685425-1.3431458-3-3-3s-3 1.34314575-3 3v14c0 .5522847-.4477153 1-1 1s-1-.4477153-1-1v-14c.0033061-2.76005315 2.2399468-4.99669388 5-5zm-12 0c2.7600532.00330612 4.9966939 2.23994685 5 5 0 .55228475-.4477153 1-1 1s-1-.44771525-1-1c0-1.65685425-1.3431458-3-3-3s-3 1.34314575-3 3v14c0 .5522847-.4477153 1-1 1s-1-.4477153-1-1v-14c.0033061-2.76005315 2.2399468-4.99669388 5-5zm17.9 32c-.9419964 8.3106412-7.4751 14.8826619-15.78 15.874-4.2033296.5118984-8.4516696-.4884199-11.985-2.822-3.0603504-1.9986635-6.8363659-2.5738375-10.353-1.577-3.9617056 1.1209499-8.2161293.4376259-11.62754659-1.8675577-3.41141732-2.3051837-5.63254632-5.9975594-6.07045341-10.0914423-.44644504-3.9615044.83215332-7.9237023 3.51-10.877 3.5460042-3.9457444 9.0176099-5.548276 14.132-4.139 3.5277869 1.0045623 7.3173369.4408668 10.4-1.547.9112423-.592507 1.8729687-1.1034868 2.874-1.527v2.208c-.6108079.2897179-1.2014701.6201279-1.768.989-3.5698667 2.3028015-7.9578713 2.9585432-12.045 1.8-4.3237178-1.1869951-8.9485569.1343823-11.99255308 3.4264303-3.0439962 3.292048-3.99976492 8.0060358-2.47837963 12.2237223 1.52138529 4.2176866 5.26633441 7.2360522 9.71093271 7.8268474 1.6102351.2033558 3.2448195.0850702 4.809-.348 4.0735246-1.1459078 8.4432164-.48242 11.993 1.821 2.6022644 1.7179691 5.6527992 2.631634 8.771 2.627.634847.0013146 1.2692389-.0340777 1.9-.106 7.3699036-.8939357 13.1622021-6.7305039 14-14.107.5277222-4.540865-.9303257-9.0885164-4-12.476-.3-.332-.6-.629-.9-.915v-2.626c4.9882998 3.8246563 7.6069126 9.9840889 6.9 16.23z"/><path id="Shape" d="m29 34c-.6127553-.0072666-1.1921748-.2801921-1.588-.748-.7593323-.7993273-1.8134984-1.2519047-2.916-1.2519047s-2.1566677.4525774-2.916 1.2519047c-.3903749.4734235-.9718858.7476306-1.5855.7476306s-1.1951251-.2742071-1.5855-.7476306c-.7578386-.7997967-1.811186-1.2528188-2.913-1.2528188s-2.1551614.4530221-2.913 1.2528188c-.3936101.4678978-.9716013.7410105-1.583.748-.5522847 0-1 .4477153-1 1s.4477153 1 1 1c1.1010426-.0039066 2.1529399-.4563704 2.913-1.253.3898012-.4729599.9706084-.7469208 1.5835-.7469208s1.1936988.2739609 1.5835.7469208c.7583369.7996397 1.8119571 1.2525131 2.914 1.2525131s2.1556631-.4528734 2.914-1.2525131c.3913403-.4735946.9736393-.7478049 1.588-.7478049s1.1966597.2742103 1.588.7478049c.761186.7967966 1.8140587 1.2492142 2.916 1.253.5522847 0 1-.4477153 1-1s-.4477153-1-1-1z"/><path id="Shape" d="m31.992 28c-.6112375-.0067403-1.1892016-.2794751-1.583-.747-.7578386-.7997967-1.811186-1.2528188-2.913-1.2528188s-2.1551614.4530221-2.913 1.2528188c-.3937984.4675249-.9717625.7402597-1.583.747-.5522847 0-1 .4477153-1 1s.4477153 1 1 1c1.1010426-.0039066 2.1529399-.4563704 2.913-1.253.3898012-.4729599.9706084-.7469208 1.5835-.7469208s1.1936988.2739609 1.5835.7469208c.7583369.7996397 1.8119571 1.2525131 2.914 1.2525131s2.1556631-.4528734 2.914-1.2525131c.3913403-.4735946.9736393-.7478049 1.588-.7478049s1.1966597.2742103 1.588.7478049c.761186.7967966 1.8140587 1.2492142 2.916 1.253.5522847 0 1-.4477153 1-1s-.4477153-1-1-1c-.6127553-.0072666-1.1921748-.2801921-1.588-.748-.7593323-.7993273-1.8134984-1.2519047-2.916-1.2519047s-2.1566677.4525774-2.916 1.2519047c-.3958252.4678079-.9752447.7407334-1.588.748z"/><path id="Shape" d="m38.495 32c-1.1007913.0037148-2.1524505.4562316-2.912 1.253-.3937984.4675249-.9717625.7402597-1.583.747-.5522847 0-1 .4477153-1 1s.4477153 1 1 1c1.1010426-.0039066 2.1529399-.4563704 2.913-1.253.3898012-.4729599.9706084-.7469208 1.5835-.7469208s1.1936988.2739609 1.5835.7469208c.7583369.7996397 1.8119571 1.2525131 2.914 1.2525131s2.1556631-.4528734 2.914-1.2525131c.3913403-.4735946.9736393-.7478049 1.588-.7478049s1.1966597.2742103 1.588.7478049c.761186.7967966 1.8140587 1.2492142 2.916 1.253.5522847 0 1-.4477153 1-1s-.4477153-1-1-1c-.6127553-.0072666-1.1921748-.2801921-1.588-.748-.7593323-.7993273-1.8134984-1.2519047-2.916-1.2519047s-2.1566677.4525774-2.916 1.2519047c-.3903749.4734235-.9718858.7476306-1.5855.7476306s-1.1951251-.2742071-1.5855-.7476306c-.7606729-.7962198-1.81283-1.248279-2.914-1.252z"/></g></g></svg>