<svg id="Capa_1" enable-background="new 0 0 512 512" height="512" viewBox="0 0 512 512" width="512" xmlns="http://www.w3.org/2000/svg"><path d="m451 150h-390c-8.284 0-15-6.716-15-15 0-74.439 61.538-135 137.178-135h145.643c75.641 0 137.179 60.561 137.179 135 0 8.284-6.716 15-15 15z" fill="#fdf16c"/><path d="m328.821 0h-72.821v150h195c8.284 0 15-6.716 15-15 0-74.439-61.538-135-137.179-135z" fill="#fae168"/><circle cx="226" cy="75" fill="#ed6d7d" r="15"/><circle cx="166" cy="75" fill="#ed6d7d" r="15"/><circle cx="286" cy="75" fill="#d44854" r="15"/><circle cx="346" cy="75" fill="#d44854" r="15"/><path d="m457 512h-402c-30.327 0-55-24.673-55-55v-282c0-30.327 24.673-55 55-55h402c30.327 0 55 24.673 55 55v282c0 30.327-24.673 55-55 55z" fill="#ed6d7d"/><path d="m457 120h-201v392h201c30.327 0 55-24.673 55-55v-282c0-30.327-24.673-55-55-55z" fill="#d44854"/><path d="m76 196.05h360v180h-360z" fill="#fff"/><path d="m256 196.05h180v180h-180z" fill="#e4dfd9"/><path d="m196 190.342c-8.284 0-15 6.121-15 13.673v164.07c0 7.551 6.716 13.673 15 13.673s15-6.121 15-13.673v-164.07c0-7.551-6.716-13.673-15-13.673z" fill="#d44854"/><path d="m316 190.342c-8.284 0-15 6.121-15 13.673v164.07c0 7.551 6.716 13.673 15 13.673s15-6.121 15-13.673v-164.07c0-7.551-6.716-13.673-15-13.673z" fill="#ae2318"/><path d="m436 391.05h-360c-8.284 0-15-6.716-15-15v-180c0-8.284 6.716-15 15-15h360c8.284 0 15 6.716 15 15v180c0 8.284-6.716 15-15 15zm-345-30h330v-150h-330z" fill="#d44854"/><path d="m256 211.05h165v150h-165z" fill="none"/><path d="m91 211.05h165v150h-165z" fill="none"/><path d="m436 181.05h-180v30h165v150h-165v30h180c8.284 0 15-6.716 15-15v-180c0-8.284-6.716-15-15-15z" fill="#ae2318"/><path d="m155.318 260.464c-.652-1.422-2.072-2.333-3.636-2.333h-34.444c-2.209 0-4 1.791-4 4v8.681c0 2.209 1.791 4 4 4h18.665l-18.06 33.736c-.664 1.239-.628 2.736.095 3.943.723 1.206 2.025 1.944 3.432 1.944h11.901c1.496 0 2.867-.835 3.553-2.163l21.493-41.584c.565-1.093.596-2.386.083-3.504z" fill="#5a5555"/><path d="m275.318 260.464c-.652-1.421-2.072-2.333-3.637-2.333h-34.444c-2.209 0-4 1.791-4 4v8.681c0 2.209 1.791 4 4 4h18.664l-18.06 33.736c-.664 1.239-.628 2.736.095 3.943.723 1.206 2.025 1.944 3.432 1.944h11.901c1.496 0 2.867-.835 3.553-2.163l21.493-41.584c.564-1.093.595-2.385.083-3.504z" fill="#5a5555"/><path d="m278.398 267.185-3.08-6.721c-.652-1.421-2.072-2.333-3.637-2.333h-15.681v55.215c.327-.306.61-.663.823-1.074l21.493-41.584c.564-1.092.594-2.384.082-3.503z" fill="#453f3f"/><path d="m398.398 267.185-3.08-6.721c-.652-1.421-2.072-2.333-3.637-2.333h-34.443c-2.209 0-4 1.791-4 4v8.681c0 2.209 1.791 4 4 4h18.663l-18.059 33.736c-.664 1.239-.628 2.736.095 3.943.723 1.206 2.025 1.944 3.432 1.944h11.9c1.496 0 2.866-.835 3.554-2.163l21.492-41.584c.565-1.092.595-2.384.083-3.503z" fill="#453f3f"/><path d="m436 453h-360c-8.284 0-15-6.716-15-15s6.716-15 15-15h360c8.284 0 15 6.716 15 15s-6.716 15-15 15z" fill="#d44854"/><path d="m436 423h-180v30h180c8.284 0 15-6.716 15-15s-6.716-15-15-15z" fill="#ae2318"/></svg>