<?xml version="1.0" encoding="iso-8859-1"?>
<!-- Generator: Adobe Illustrator 19.0.0, SVG Export Plug-In . SVG Version: 6.00 Build 0)  -->
<svg version="1.1" id="Layer_1" xmlns="http://www.w3.org/2000/svg" xmlns:xlink="http://www.w3.org/1999/xlink" x="0px" y="0px"
	 viewBox="0 0 512 512" style="enable-background:new 0 0 512 512;" xml:space="preserve">
<path style="fill:#FDDD85;" d="M236.283,215.203V87.769C236.283,39.296,196.987,0,148.514,0l0,0
	c-48.475,0-87.77,39.296-87.77,87.769v66.586c0,2.848,2.309,5.156,5.156,5.156h26.011c2.848,0,5.156-2.309,5.156-5.156V85.823
	c0-28.413,23.033-51.445,51.445-51.445l0,0c28.413,0,51.445,23.033,51.445,51.445v129.381L236.283,215.203L236.283,215.203z"/>
<path style="fill:#F07B52;" d="M425.375,511.996H148.048c-14.293,0-25.881-11.588-25.881-25.881v-245.03
	c0-14.293,11.588-25.881,25.881-25.881h277.328c14.293,0,25.881,11.588,25.881,25.881v245.029
	C451.257,500.408,439.669,511.996,425.375,511.996z"/>
<path style="fill:#DD6140;" d="M451.255,241.088v245.029c0,14.292-11.581,25.883-25.883,25.883h-51.218
	c14.292,0,25.873-11.591,25.873-25.883V241.088c0-14.292-11.581-25.883-25.873-25.883h51.218
	C439.673,215.203,451.255,226.795,451.255,241.088z"/>
<path style="fill:#FFFFFF;" d="M309.404,341.973c0-12.533-10.16-22.693-22.693-22.693s-22.693,10.16-22.693,22.693
	c0,7.64,3.78,14.392,9.566,18.505v19.91c0,7.219,5.906,13.127,13.126,13.127l0,0c7.219,0,13.126-5.906,13.126-13.127v-19.91
	C305.625,356.365,309.404,349.613,309.404,341.973z"/>
<g>
</g>
<g>
</g>
<g>
</g>
<g>
</g>
<g>
</g>
<g>
</g>
<g>
</g>
<g>
</g>
<g>
</g>
<g>
</g>
<g>
</g>
<g>
</g>
<g>
</g>
<g>
</g>
<g>
</g>
</svg>
